<?xml version="1.0" encoding="iso-8859-1"?>
<!-- Generator: Adobe Illustrator 19.0.0, SVG Export Plug-In . SVG Version: 6.00 Build 0)  -->
<svg version="1.1" id="Capa_1" xmlns="http://www.w3.org/2000/svg" xmlns:xlink="http://www.w3.org/1999/xlink" x="0px" y="0px"
	 viewBox="0 0 512.073 512.073" style="enable-background:new 0 0 512.073 512.073;" xml:space="preserve">
<g>
	<path style="fill:#A5A5A4;" d="M211.862,441.416H17.655C7.916,441.387,0.029,433.5,0,423.761V17.692
		C0.029,7.953,7.916,0.065,17.655,0.037h370.759c9.739,0.029,17.627,7.916,17.655,17.655v247.172L211.862,441.416z"/>
	<path style="fill:#CC4B4C;" d="M211.862,282.519H44.138c-4.869-0.014-8.813-3.958-8.828-8.828V44.175
		c0.014-4.869,3.958-8.813,8.828-8.828h317.793c4.869,0.014,8.813,3.958,8.828,8.828v238.345H211.862z"/>
	<g>
		<path style="fill:#E6E7E8;" d="M176.552,122.462v72.942c0,3.255,1.792,6.247,4.662,7.783c2.87,1.536,6.353,1.368,9.062-0.438
			l54.706-36.471c2.456-1.637,3.931-4.393,3.931-7.345c0-2.952-1.475-5.708-3.931-7.345l-54.706-36.471
			c-2.709-1.806-6.192-1.974-9.062-0.438C178.344,116.215,176.552,119.207,176.552,122.462z"/>
		<path style="fill:#E6E7E8;" d="M256,353.14H44.138c-4.875,0-8.828-3.952-8.828-8.828s3.952-8.828,8.828-8.828H256
			c4.875,0,8.828,3.952,8.828,8.828S260.875,353.14,256,353.14z"/>
	</g>
	<path style="fill:#41767F;" d="M114.759,317.83h17.655c4.875,0,8.828,3.952,8.828,8.828v35.31c0,4.875-3.952,8.828-8.828,8.828
		h-17.655c-4.875,0-8.828-3.952-8.828-8.828v-35.31C105.931,321.782,109.883,317.83,114.759,317.83z"/>
	<path style="fill:#E6E7E8;" d="M150.069,414.933H44.138c-4.875,0-8.828-3.952-8.828-8.828s3.952-8.828,8.828-8.828h105.931
		c4.875,0,8.828,3.952,8.828,8.828S154.944,414.933,150.069,414.933z"/>
	<path style="fill:#F18D46;" d="M400.596,512.037h93.749c10.741-1.189,18.575-10.726,17.655-21.493V286.357
		c0.919-10.767-6.914-20.304-17.655-21.493H229.517c-10.741,1.189-18.575,10.726-17.655,21.493v204.186
		c-0.919,10.767,6.914,20.304,17.655,21.493H400.596z"/>
	<g>
		<path style="fill:#E6E7E8;" d="M281.233,337.636c-1.566-2.738-4.474-4.433-7.628-4.445c-3.154-0.013-6.076,1.658-7.664,4.384
			c-1.588,2.725-1.602,6.091-0.036,8.829l53.138,92.862c1.566,2.738,4.474,4.433,7.628,4.445s6.076-1.658,7.664-4.384
			c1.588-2.725,1.602-6.091,0.036-8.829L281.233,337.636z"/>
		<path style="fill:#E6E7E8;" d="M454.112,431.188l-38.664-44.138c-2.077-2.373-5.263-3.458-8.357-2.845s-5.626,2.829-6.642,5.815
			s-0.363,6.287,1.715,8.66l38.664,44.138c2.077,2.373,5.263,3.458,8.357,2.845s5.626-2.829,6.642-5.815
			C456.843,436.862,456.189,433.561,454.112,431.188z"/>
		<path style="fill:#E6E7E8;" d="M379.034,387.05l-38.664,44.138c-3.211,3.668-2.841,9.245,0.828,12.457
			c3.668,3.211,9.245,2.841,12.457-0.828l38.664-44.138c3.211-3.668,2.841-9.246-0.828-12.457
			C387.823,383.011,382.246,383.381,379.034,387.05z"/>
	</g>
	<g>
		<circle style="fill:#E64C3C;" cx="264.828" cy="326.657" r="17.655"/>
		<circle style="fill:#E64C3C;" cx="335.448" cy="450.244" r="17.655"/>
		<circle style="fill:#E64C3C;" cx="397.241" cy="379.623" r="17.655"/>
		<circle style="fill:#E64C3C;" cx="459.034" cy="450.244" r="17.655"/>
	</g>
</g>
<g>
</g>
<g>
</g>
<g>
</g>
<g>
</g>
<g>
</g>
<g>
</g>
<g>
</g>
<g>
</g>
<g>
</g>
<g>
</g>
<g>
</g>
<g>
</g>
<g>
</g>
<g>
</g>
<g>
</g>
</svg>
